<svg width="256" height="256" viewBox="0 0 256 256" fill="none" xmlns="http://www.w3.org/2000/svg">
  <polygon points="54,160 86,176 86,80 54,64" fill="#0792C7"/>
  <polygon points="86,176 118,192 118,96 86,80" fill="#2F61B8"/>
  <polygon points="118,192 150,208 150,112 118,96" fill="#2C4D9F"/>
  <polygon points="150,208 182,224 182,128 150,112" fill="#0E2C5F"/>
  <polygon points="54,64 86,80 86,48 54,32" fill="#79CDED"/>
  <polygon points="86,80 118,96 118,64 86,48" fill="#7BC5F0"/>
  <polygon points="118,96 150,112 150,80 118,64" fill="#7CB4F2"/>
  <polygon points="150,112 182,128 182,96 150,80" fill="#2F61B8"/>
</svg>
